<svg width="32" height="32" viewBox="0 0 32 32" fill="none" xmlns="http://www.w3.org/2000/svg">
    <path
        d="M21 22.5C21.2761 22.5 21.5 22.2761 21.5 22C21.5 21.7239 21.2761 21.5 21 21.5V22.5ZM13.3536 9.64645C13.1583 9.45118 12.8417 9.45118 12.6464 9.64645L9.46447 12.8284C9.2692 13.0237 9.2692 13.3403 9.46447 13.5355C9.65973 13.7308 9.97631 13.7308 10.1716 13.5355L13 10.7071L15.8284 13.5355C16.0237 13.7308 16.3403 13.7308 16.5355 13.5355C16.7308 13.3403 16.7308 13.0237 16.5355 12.8284L13.3536 9.64645ZM21 21.5H17V22.5H21V21.5ZM13.5 18V10H12.5V18H13.5ZM17 21.5C15.067 21.5 13.5 19.933 13.5 18H12.5C12.5 20.4853 14.5147 22.5 17 22.5V21.5Z"
        fill="#A3A3A3" />
</svg>